<?xml version="1.0" encoding="UTF-8" standalone="no" ?>
<!DOCTYPE svg PUBLIC "-//W3C//DTD SVG 1.1//EN" "http://www.w3.org/Graphics/SVG/1.1/DTD/svg11.dtd">
<svg xmlns="http://www.w3.org/2000/svg" xmlns:xlink="http://www.w3.org/1999/xlink" version="1.1" width="1080" height="1080" viewBox="0 0 1080 1080" xml:space="preserve">
<desc>Created with Fabric.js 5.2.4</desc>
<defs>
</defs>
<g transform="matrix(1 0 0 1 540 540)" id="6d74ec90-cc2d-4b21-bfb4-ccf21a967f1a"  >
<rect style="stroke: none; stroke-width: 1; stroke-dasharray: none; stroke-linecap: butt; stroke-dashoffset: 0; stroke-linejoin: miter; stroke-miterlimit: 4; fill: rgb(255,255,255); fill-rule: nonzero; opacity: 1; visibility: hidden;" vector-effect="non-scaling-stroke"  x="-540" y="-540" rx="0" ry="0" width="1080" height="1080" />
</g>
<g transform="matrix(1 0 0 1 540 540)" id="56919e5b-27fe-46b8-911e-2eb47fd684a0"  >
</g>
<g transform="matrix(1.05 0 0 1.05 540 540)"  >
<path style="stroke: none; stroke-width: 1; stroke-dasharray: none; stroke-linecap: butt; stroke-dashoffset: 0; stroke-linejoin: miter; stroke-miterlimit: 4; fill: rgb(0,0,0); fill-rule: nonzero; opacity: 1;"  transform=" translate(-512, -512)" d="M 640 853.333333 C 652.8 853.333333 661.333333 844.8000000000001 661.333333 832 L 693.333333 320 C 693.333333 307.2 684.8000000000001 298.666667 672 298.666667 C 659.2 298.666667 650.666667 307.20000000000005 650.666667 320 L 618.666667 832 C 618.666667 842.666667 627.2 853.333333 640 853.333333 z M 810.666667 170.666667 L 774.4 170.666667 C 761.6 160 748.8 147.2 736 128 C 716.8 96 686.933333 64 627.2 64 C 576 64 541.866667 76.8 522.6666670000001 98.133333 C 520.533333 102.4 514.133333 106.666667 505.6 106.666667 C 494.933333 106.666667 484.26666700000004 102.4 477.866667 91.733334 C 469.333334 59.733334 435.2 42.666667 394.666667 42.666667 C 354.133334 42.666667 322.133334 66.13333399999999 311.46666700000003 98.13333399999999 C 268.8 113.066667 236.8 138.666667 226.13333400000005 170.666667 L 213.333333 170.666667 C 200.533333 170.666667 192 179.2 192 192 C 192 192 192 192 192 192 L 234.666667 896 C 241.066667 942.933333 273.066667 981.333333 320 981.333333 L 704 981.333333 C 750.933333 981.333333 780.8 942.9333330000001 789.333333 896 L 832 192 C 832 192 832 192 832 192 C 832 179.2 823.466667 170.666667 810.666667 170.666667 z M 326.4 138.666667 C 339.2 134.39999999999998 349.866667 123.73333399999999 354.133333 110.93333399999999 C 356.266667 98.133333 371.2 85.333333 394.666667 85.333333 C 418.13333400000005 85.333333 433.066667 89.6 435.20000000000005 102.39999999999999 C 437.33333300000004 106.66666699999999 439.46666700000003 110.93333299999999 441.6 115.19999999999999 C 456.533333 136.533333 480 147.2 503.46666700000003 147.2 C 522.6666670000001 147.2 541.866667 138.666667 554.6666670000001 125.86666699999999 C 567.466667 113.066667 588.8000000000001 104.533334 627.2 104.533334 C 665.6 104.533334 686.9333330000001 125.86666699999999 691.2 136.533334 C 697.6 149.333334 706.133333 160.000001 714.6666670000001 168.533334 L 275.2 168.533333 C 285.866667 157.866667 302.933333 147.2 326.4 138.666667 z M 746.666667 896 C 744.533334 919.466667 727.4666669999999 938.666667 704 938.666667 L 320 938.666667 C 296.53333299999997 938.666667 281.6 919.4666669999999 277.333333 896 L 236.79999999999998 213.33333300000004 L 789.3333329999999 213.33333300000004 L 746.666667 896 z M 512 853.333333 C 524.8 853.333333 533.333333 844.8000000000001 533.333333 832 L 533.333333 320 C 533.333333 307.2 524.8000000000001 298.666667 512 298.666667 C 499.19999999999993 298.666667 490.666667 307.20000000000005 490.666667 320 L 490.666667 832 C 490.666667 844.8 499.2 853.333333 512 853.333333 z M 384 853.333333 C 396.8 853.333333 405.333333 842.6666660000001 405.333333 832 L 373.333333 320 C 373.333333 307.2 362.66666599999996 298.666667 352 298.666667 C 339.2 298.666667 330.666667 309.33333400000004 330.666667 320 L 362.666667 832 C 362.666667 844.8 373.333333 853.333333 384 853.333333 z" stroke-linecap="round" />
</g>
</svg>