<?xml version="1.0" encoding="UTF-8" standalone="no" ?>
<!DOCTYPE svg PUBLIC "-//W3C//DTD SVG 1.1//EN" "http://www.w3.org/Graphics/SVG/1.1/DTD/svg11.dtd">
<svg xmlns="http://www.w3.org/2000/svg" xmlns:xlink="http://www.w3.org/1999/xlink" version="1.1" width="1080" height="1080" viewBox="0 0 1080 1080" xml:space="preserve">
<desc>Created with Fabric.js 5.2.4</desc>
<defs>
</defs>
<g transform="matrix(1 0 0 1 540 540)" id="d4ea53b2-fd2b-4e70-a2b0-c8d8e8239126"  >
<rect style="stroke: none; stroke-width: 1; stroke-dasharray: none; stroke-linecap: butt; stroke-dashoffset: 0; stroke-linejoin: miter; stroke-miterlimit: 4; fill: rgb(255,255,255); fill-rule: nonzero; opacity: 1; visibility: hidden;" vector-effect="non-scaling-stroke"  x="-540" y="-540" rx="0" ry="0" width="1080" height="1080" />
</g>
<g transform="matrix(1 0 0 1 540 540)" id="b86140be-4e4b-4ff6-b515-6ffa20631a49"  >
</g>
<g transform="matrix(1.05 0 0 1.05 540 540)"  >
<path style="stroke: none; stroke-width: 1; stroke-dasharray: none; stroke-linecap: butt; stroke-dashoffset: 0; stroke-linejoin: miter; stroke-miterlimit: 4; fill: rgb(0,0,0); fill-rule: nonzero; opacity: 1;"  transform=" translate(-512, -512.01)" d="M 966.855111 202.254222 C 964.5479830476098 165.87305032013717 949.1437036445893 131.5582367141352 923.491556 105.65688899999998 L 917.290667 99.47022199999999 C 890.538667 72.704 855.367111 57.96977799999999 818.289778 57.96977799999999 C 783.232 57.96977799999999 750.5351109999999 71.35288899999999 726.200889 95.68711099999999 L 155.591111 666.311111 C 111.54488900000001 710.343111 66.318222 889.258667 57.699556000000015 924.672 C 55.35288900000002 934.343111 58.19733400000001 944.5120000000001 65.22311100000002 951.537778 L 71.40977800000002 957.710222 C 78.26194041197031 964.5883157961241 88.15768880439848 967.4808366708228 97.63555600000001 965.3760000000001 C 133.774223 957.425778 316.273778 915.5128890000001 360.519111 871.2675560000001 L 931.185778 300.657778 C 956.444445 275.399111 969.116445 240.45511100000002 966.8551110000001 202.25422200000003 z M 709.8026669999999 269.98044400000003 C 712.4641444335299 272.6571974479763 716.0830632888673 274.1622727015179 719.8577779999999 274.1622727015179 C 723.6324927111326 274.1622727015179 727.25141156647 272.6571974479763 729.912889 269.98044400000003 L 772.807111 227.08622200000002 L 799.772444 254.03733300000002 L 302.17955599999993 751.630222 L 275.2284439999999 724.679111 L 688.7537779999999 311.168 C 694.3070624631557 305.61471553684413 694.3070624631557 296.61106246315586 688.7537779999999 291.057778 C 683.2004935368441 285.5044935368441 674.1968404631557 285.5044935368441 668.6435559999999 291.057778 L 255.118222 704.568889 L 226.446222 675.882667 L 724.024889 178.318222 L 752.696889 206.976 L 709.802667 249.870222 C 704.250568346925 255.4239975893323 704.250568346925 264.4266684106678 709.802667 269.98044400000003 z M 350.933333 800.384 L 322.275556 771.726222 L 819.868444 274.147556 L 848.540444 302.805333 L 350.933333 800.384 z M 146.204444 820.764444 L 204.330667 878.904889 C 177.23098481235107 886.9823982296283 149.9400549321919 894.4038240560216 122.48177800000019 901.1626670000006 C 129.74612001384148 874.1776505505653 137.65594488891793 847.3705512052671 146.20444400000014 820.7644440000003 z M 234.951111 869.304889 L 156.316444 790.656 C 170.410666 750.5351109999999 184.67555499999997 717.653333 195.811556 706.5315559999999 L 206.33599999999998 696.0071109999999 L 245.04888899999997 734.7199999999999 L 245.06311099999996 734.748444 L 245.09155599999997 734.762667 L 330.823111 820.5084439999999 L 320.29866699999997 831.032889 C 309.21955599999995 842.112 275.811556 855.893333 234.95111099999997 869.304889 z M 890.951111 260.408889 L 868.650667 282.709333 L 782.890667 196.94933300000002 L 782.876444 196.93511100000003 L 782.848 196.92088900000005 L 744.149333 158.22222200000004 L 766.4497779999999 135.92177800000005 C 780.0319999999999 122.33955600000004 798.4497779999999 114.87288900000004 818.304 114.87288900000004 C 840.192 114.87288900000004 861.070222 123.69066700000005 877.084444 139.70488900000004 L 883.271111 145.89155600000004 C 899.1375783505672 161.8992919464791 908.6623791615109 183.11660672896193 910.08 205.61066699999998 C 911.345778 227.32800000000003 904.561778 246.79822300000004 890.9511110000001 260.40888900000004 z" stroke-linecap="round" />
</g>
</svg>